<?xml version="1.0" standalone="no"?>
<svg version="1.0" xmlns="http://www.w3.org/2000/svg"
 width="487.000000pt" height="511.000000pt" viewBox="0 0 487.000000 511.000000"
 preserveAspectRatio="xMidYMid meet">
<metadata>
Created by potrace 1.16, written by Peter Selinger 2001-2019
</metadata>
<g transform="translate(0.000000,511.000000) scale(0.100000,-0.100000)"
fill="#0079d6" stroke="none">
<path d="M1305 5075 c-631 -63 -1145 -280 -1263 -532 l-27 -58 0 -1635 0
-1635 27 -58 c101 -216 474 -407 978 -501 119 -22 182 -31 370 -51 l45 -5 -3
106 c-4 119 8 206 43 307 78 223 256 414 470 504 117 50 207 68 335 68 l116 0
54 89 c68 111 235 285 335 349 96 61 195 109 290 141 83 28 224 56 281 56 l34
0 -2 1133 -3 1132 -29 54 c-137 262 -678 484 -1316 541 -155 14 -575 11 -735
-5z m819 -240 c254 -30 460 -83 603 -155 384 -192 128 -442 -547 -535 -263
-36 -681 -36 -955 0 -396 52 -688 175 -725 305 -53 186 333 354 921 400 156
12 547 4 703 -15z m-1014 -1697 l45 -14 3 -104 c1 -57 1 -109 -2 -116 -4 -10
-19 -7 -61 12 -99 43 -233 45 -256 3 -24 -47 -5 -67 116 -124 184 -87 244
-157 245 -285 0 -149 -94 -246 -270 -281 -80 -15 -247 -6 -325 18 l-60 19 -3
128 c-1 70 1 126 5 124 152 -75 167 -81 228 -86 78 -6 115 12 115 57 0 38 -18
51 -135 106 -164 76 -220 146 -219 275 1 143 74 230 233 276 58 17 277 12 341
-8z m762 2 c212 -65 336 -280 299 -518 -25 -160 -97 -271 -225 -347 -14 -8 7
-30 129 -133 80 -68 145 -128 145 -133 0 -5 -71 -9 -168 -9 l-169 0 -101 109
c-98 105 -103 109 -159 120 -145 28 -257 115 -320 247 -31 65 -37 88 -41 167
-2 52 1 117 7 148 26 123 112 249 209 306 109 64 269 82 394 43z m708 -335 l0
-345 155 0 155 0 0 -115 0 -115 -295 0 -295 0 0 460 0 460 140 0 140 0 0 -345z"/>
<path d="M1641 2898 c-62 -42 -76 -78 -76 -203 0 -92 3 -117 21 -149 32 -61
65 -81 135 -81 58 0 62 2 99 41 45 49 60 94 60 186 0 79 -28 163 -65 198 -38
36 -128 40 -174 8z"/>
<path d="M3255 2085 c-326 -59 -612 -277 -751 -569 -29 -61 -40 -76 -53 -70
-37 16 -265 16 -333 0 -214 -50 -392 -192 -488 -391 -95 -195 -104 -389 -29
-591 73 -194 267 -368 489 -436 l75 -22 1194 -4 1194 -3 62 29 c168 79 278
289 246 469 -32 173 -184 327 -345 349 l-46 7 6 81 c3 44 7 87 10 94 7 25 -17
229 -37 302 -23 87 -91 235 -144 314 -116 175 -321 332 -526 401 -155 53 -367
69 -524 40z m438 -129 c340 -101 593 -375 663 -717 27 -136 14 -339 -31 -490
-5 -13 6 -15 79 -11 62 3 97 0 135 -13 173 -57 262 -256 189 -417 -35 -75 -88
-132 -156 -165 l-57 -28 -1170 0 -1170 0 -81 27 c-191 65 -332 205 -402 400
-23 63 -26 89 -26 188 0 97 5 127 27 195 52 158 171 293 320 364 99 48 160 61
276 61 63 0 112 -7 170 -23 l80 -24 17 51 c103 314 374 551 710 621 110 23
316 14 427 -19z"/>
</g>
</svg>
